<?xml version="1.0" encoding="UTF-8" standalone="no"?>
<svg
   xmlns:dc="http://purl.org/dc/elements/1.1/"
   xmlns:cc="http://creativecommons.org/ns#"
   xmlns:rdf="http://www.w3.org/1999/02/22-rdf-syntax-ns#"
   xmlns:svg="http://www.w3.org/2000/svg"
   xmlns="http://www.w3.org/2000/svg"
   xmlns:sodipodi="http://sodipodi.sourceforge.net/DTD/sodipodi-0.dtd"
   xmlns:inkscape="http://www.inkscape.org/namespaces/inkscape"
   width="210mm"
   height="297mm"
   viewBox="0 0 210 297"
   version="1.1"
   id="svg8"
   inkscape:version="1.0.2-2 (e86c870879, 2021-01-15)"
   sodipodi:docname="projet_3.svg">
  <defs
     id="defs2">
    <rect
       x="-143.79101"
       y="165.70711"
       width="134.1693"
       height="37.417734"
       id="rect66" />
    <inkscape:perspective
       sodipodi:type="inkscape:persp3d"
       inkscape:vp_x="0 : 148.5 : 1"
       inkscape:vp_y="0 : 1000 : 0"
       inkscape:vp_z="210 : 148.5 : 1"
       inkscape:persp3d-origin="105 : 99 : 1"
       id="perspective412" />
  </defs>
  <sodipodi:namedview
     id="base"
     pagecolor="#ffffff"
     bordercolor="#666666"
     borderopacity="1.0"
     inkscape:pageopacity="0.0"
     inkscape:pageshadow="2"
     inkscape:zoom="0.98994949"
     inkscape:cx="155.51192"
     inkscape:cy="717.36697"
     inkscape:document-units="mm"
     inkscape:current-layer="layer1"
     inkscape:document-rotation="0"
     showgrid="false"
     inkscape:window-width="1898"
     inkscape:window-height="1020"
     inkscape:window-x="0"
     inkscape:window-y="0"
     inkscape:window-maximized="0"
     inkscape:object-paths="true"
     inkscape:snap-smooth-nodes="true"
     inkscape:snap-bbox="true" />
  <metadata
     id="metadata5">
    <rdf:RDF>
      <cc:Work
         rdf:about="">
        <dc:format>image/svg+xml</dc:format>
        <dc:type
           rdf:resource="http://purl.org/dc/dcmitype/StillImage" />
        <dc:title />
      </cc:Work>
    </rdf:RDF>
  </metadata>
  <g
     inkscape:label="Calque 1"
     inkscape:groupmode="layer"
     id="layer1">
    <g
       id="g20"
       style="fill:#784421"
       transform="translate(0.37797619,66.52381)">
      <rect
         style="fill:#784421;stroke-width:0.264583"
         id="rect11"
         width="90.336304"
         height="38.175598"
         x="69.547623"
         y="94.872025" />
      <path
         style="fill:#784421;stroke:#000000;stroke-width:0.264583px;stroke-linecap:butt;stroke-linejoin:miter;stroke-opacity:1"
         d="m 69.547623,94.872023 -39.687505,0.377976 c 0,0 12.851199,33.261911 39.687505,37.797621 26.836303,4.53571 0,-38.175597 0,-38.175597 z"
         id="path13" />
      <path
         style="fill:#784421;stroke:#000000;stroke-width:0.264583px;stroke-linecap:butt;stroke-linejoin:miter;stroke-opacity:1"
         d="m 159.88393,94.872023 c 20.41071,-0.377976 20.41071,-1.889882 20.41071,-1.889882 l -9.07143,38.175599 -11.33928,1.88988 z"
         id="path15" />
    </g>
    <rect
       style="fill:#784421;fill-opacity:1;stroke-width:0.264583"
       id="rect131"
       width="3.7797618"
       height="85.04464"
       x="105.45536"
       y="10.205358" />
    <path
       style="fill:none;fill-rule:evenodd;stroke:#000000;stroke-width:0.264583px;stroke-linecap:butt;stroke-linejoin:miter;stroke-opacity:1"
       d="M 109.23512,10.205357 177.64881,75.21726"
       id="path145"
       inkscape:connector-type="polyline"
       inkscape:connector-curvature="0" />
    <path
       style="fill:none;fill-rule:evenodd;stroke:#000000;stroke-width:0.264583px;stroke-linecap:butt;stroke-linejoin:miter;stroke-opacity:1"
       d="m 177.64881,75.21726 -67.65774,0.755954"
       id="path147"
       inkscape:connector-type="polyline"
       inkscape:connector-curvature="0" />
    <path
       style="fill:#008080;fill-rule:evenodd;stroke:#000000;stroke-width:0.264583px;stroke-linecap:butt;stroke-linejoin:miter;stroke-opacity:1"
       d="m 109.23512,10.205357 0.75595,65.767857"
       id="path149"
       inkscape:connector-type="polyline"
       inkscape:connector-curvature="0" />
    <path
       style="fill:#008080;fill-opacity:1;stroke-width:1.42857"
       d="m 416.85607,267.13096 c -0.46471,-10.41946 -1.25032,-65.19322 -1.7458,-121.71945 l -0.90088,-102.774968 5.03983,4.203542 c 2.77191,2.311949 59.7807,56.274976 126.6862,119.917826 l 121.64636,115.71429 -44.73044,0.89246 c -24.60176,0.49085 -80.82493,1.30158 -124.9404,1.80162 l -80.20994,0.90916 z"
       id="path151"
       transform="scale(0.26458333)" />
    <path
       style="fill:#000000;fill-opacity:1;fill-rule:nonzero;stroke:none;stroke-width:0.264583"
       id="path28"
       d="m 41.673364,116.54027 c -1.585026,1.33898 -2.812267,2.99215 -3.609972,4.91499 -0.227862,0.54926 -0.392274,1.12274 -0.588412,1.6841 -0.152517,0.58834 -0.379529,1.16226 -0.45755,1.76501 -0.275804,2.13078 0.213921,4.44423 1.200381,6.34033 0.98983,1.90258 1.820976,2.63694 3.236089,4.23201 2.627284,2.50589 5.795277,4.3438 9.331309,5.23116 2.349664,0.58964 3.039486,0.48458 5.445305,0.56535 0.90718,-0.095 1.822513,-0.13089 2.721541,-0.28499 4.174273,-0.71553 7.695343,-2.96863 11.172272,-5.32986 0.956964,-0.64988 2.236237,-2.46773 2.924948,-3.36776 0.345053,-0.61014 0.757491,-1.18682 1.035158,-1.83043 1.283544,-2.97516 0.9139,-6.17301 0.211278,-9.22403 -0.385649,-1.03757 -0.55453,-1.68807 -1.178814,-2.60991 -1.134695,-1.67553 -2.816924,-2.86245 -4.44754,-4.00182 -3.232999,-2.10546 -7.069204,-2.72927 -10.800969,-3.36545 -1.957999,-0.27038 -3.920186,-0.53688 -5.890868,-0.69981 -0.67618,-0.0559 -1.98491,-0.1414 -2.691361,-0.0754 -0.397359,0.0371 -0.785098,0.14391 -1.177649,0.21586 -2.987424,1.01879 -5.732455,2.96567 -8.330827,4.60658 -0.465172,0.29377 -0.909355,0.62818 -1.305158,1.01031 -1.010558,0.97565 -1.53276,1.8856 -2.309868,3.04118 0,0 4.953995,-2.15594 4.953995,-2.15594 v 0 c 0.936577,-1.3019 1.202449,-1.82269 2.408719,-2.89751 0.412281,-0.36735 1.839592,-1.20114 1.330772,-0.9866 -1.186635,0.50034 -2.249763,1.25443 -3.389207,1.85453 -0.39266,0.20679 0.751586,-0.47477 1.148038,-0.67421 0.359188,-0.18069 0.742402,-0.30901 1.113605,-0.46352 0.373993,-0.10293 0.73865,-0.24942 1.121978,-0.30879 0.639535,-0.099 2.1086,-0.0523 2.708535,-0.0175 1.978795,0.11492 3.949242,0.37094 5.912262,0.63443 3.649094,0.60977 7.413157,1.1938 10.590692,3.22082 2.540883,1.73829 4.484126,3.18743 5.431353,6.26076 0.716158,2.99301 1.034328,5.92603 -0.324514,8.82248 -0.289957,0.61805 -0.701842,1.17119 -1.052764,1.75679 -0.449643,0.55748 -0.860586,1.14852 -1.348928,1.67243 -0.508992,0.54607 -2.378059,1.45082 -1.635728,1.52963 1.018328,0.10811 1.941266,-0.75764 2.727558,-1.41372 0.608843,-0.50801 -1.430319,0.69288 -2.178489,0.95558 -2.196092,0.7711 -2.846279,0.72846 -5.164178,1.02706 -2.336628,-0.0288 -3.062906,0.0895 -5.352444,-0.44389 -3.469171,-0.80822 -6.590696,-2.56929 -9.178504,-4.99358 -1.403971,-1.5833 -2.136912,-2.19617 -3.089822,-4.09341 -0.930077,-1.85177 -1.321171,-4.0193 -0.988095,-6.07064 0.09563,-0.58893 0.322167,-1.14897 0.483251,-1.72346 0.211079,-0.54396 0.390033,-1.1015 0.633243,-1.63187 0.868217,-1.89334 2.197873,-3.50885 3.872058,-4.74025 0,0 -5.222679,2.06294 -5.222679,2.06294 z" />
    <path
       style="fill:#000000;fill-opacity:1;fill-rule:nonzero;stroke:none;stroke-width:0.264583"
       id="path30"
       d="m 59.814655,139.70713 c 0.06501,3.41617 0.10758,6.83057 0.23966,10.24503 -0.110427,1.91775 0.515972,4.22103 -0.20955,6.07566 -0.290166,0.74174 -1.012513,1.57662 -1.473446,2.17699 -2.557942,2.74897 -4.440611,6.02081 -6.824388,8.90347 -0.216069,0.19801 -0.432138,0.39603 -0.648208,0.59405 0,0 5.12672,-2.12557 5.12672,-2.12557 v 0 c 0.186913,-0.20767 0.373828,-0.41534 0.56074,-0.62301 2.269813,-2.969 4.252923,-6.15797 6.798508,-8.91481 0.621893,-0.88033 1.09777,-1.38669 1.411195,-2.41714 0.599366,-1.97053 -0.06022,-4.13009 0.04524,-6.12975 -0.107053,-3.42514 -0.211926,-6.85806 -0.01405,-10.28189 0,0 -5.012406,2.49697 -5.012406,2.49697 z" />
    <path
       style="fill:#000000;fill-opacity:1;fill-rule:nonzero;stroke:none;stroke-width:0.264583"
       id="path32"
       d="m 61.11886,155.98782 c 0.742675,2.77588 2.862112,4.86205 4.838859,6.82823 1.415727,1.34889 0.72675,0.7009 2.065345,1.94565 0,0 4.663284,-2.88768 4.663284,-2.88768 v 0 c -1.361437,-1.2144 -0.663154,-0.58109 -2.092671,-1.90232 -1.90331,-1.87268 -4.00753,-3.89764 -4.531688,-6.6267 0,0 -4.943129,2.64282 -4.943129,2.64282 z" />
    <path
       style="fill:#000000;fill-opacity:1;fill-rule:nonzero;stroke:none;stroke-width:0.264583"
       id="path34"
       d="m 49.414813,149.5465 c 1.903828,-0.59311 3.809241,-1.18173 5.717082,-1.76182 0.715481,-0.21755 2.713429,-0.83354 3.518361,-0.98817 0.437425,-0.084 0.885581,-0.0967 1.328369,-0.14507 0.901973,0.0154 1.720734,0.16292 2.445917,0.71863 0.160599,0.12306 0.256484,0.34208 0.446741,0.41093 1.042879,0.37741 1.705044,-0.0918 2.740657,-0.41992 5.834896,-2.70438 11.328368,-6.09688 16.868063,-9.34294 0,0 -4.826407,1.86165 -4.826407,1.86165 v 0 c 0.452268,-0.23823 1.796992,-0.97457 1.356802,-0.7147 -2.963942,1.7498 -6.004068,3.38685 -9.115666,4.85821 -0.509778,0.19777 -1.015293,0.40689 -1.529336,0.59329 -0.245335,0.089 -0.491363,0.28172 -0.747626,0.23237 -0.226023,-0.0435 -0.324495,-0.32776 -0.502928,-0.47316 -0.811469,-0.66127 -1.687329,-0.92335 -2.734082,-0.98323 -0.472779,0.0337 -0.951211,0.0208 -1.418336,0.10116 -0.567134,0.0975 -1.117841,0.27477 -1.671921,0.43015 -2.5138,0.70496 -4.977185,1.58537 -7.508777,2.22998 0,0 -4.366913,3.39264 -4.366913,3.39264 z" />
    <path
       style="fill:none;stroke:#000000;stroke-width:0.264583px;stroke-linecap:butt;stroke-linejoin:miter;stroke-opacity:1"
       d="m 49.414813,149.5465 c -0.932389,1.33585 -5.001842,-0.75855 -8.215408,-2.13579 -3.860011,-1.65429 -3.218121,-0.94685 -7.9375,-2.64583 -4.104184,-1.47751 -7.821022,-3.54936 -12.095239,-4.53572 -0.822878,-0.18989 -3.165937,-1.25185 -4.157738,-0.75595 -2.077844,1.03892 -2.205781,2.35431 -3.023809,4.53572 -0.971341,2.59024 -2.466087,5.43444 -1.889881,8.31547 0.594938,2.9747 3.025697,5.1074 4.157738,7.9375 1.011759,2.5294 2.036777,8.41943 2.267857,10.96131 0.680626,7.48689 0.377976,15.13292 0.377976,22.67857 0,2.40521 -0.680577,4.76074 -0.377976,7.18155 0.254273,2.03418 3.023809,3.68609 3.023809,5.66964"
       id="path44" />
    <path
       sodipodi:type="spiral"
       style="fill:#ffff00;fill-rule:evenodd;stroke:#000000;stroke-width:0.264583"
       id="path62"
       sodipodi:cx="25.324404"
       sodipodi:cy="26.836309"
       sodipodi:expansion="1"
       sodipodi:revolution="3"
       sodipodi:radius="16.410437"
       sodipodi:argument="-17.14012"
       sodipodi:t0="0"
       d="m 25.324404,26.836309 c -0.113707,0.814899 -1.154566,0.248768 -1.354415,-0.188988 -0.541578,-1.186291 0.636415,-2.33224 1.732392,-2.519841 1.960445,-0.335573 3.555195,1.432929 3.685267,3.275795 0.190886,2.704481 -2.235444,4.801102 -4.819198,4.850693 -3.443739,0.0661 -6.055991,-3.039459 -6.01612,-6.362601 0.05017,-4.181835 3.844037,-7.315364 7.906005,-7.181546 4.919587,0.162072 8.577303,4.6489 8.346971,9.449408 -0.271437,5.657233 -5.453935,9.840849 -10.99281,9.512398 -6.394851,-0.37921 -11.105468,-6.259087 -10.677824,-12.536214 0.485915,-7.132471 7.064321,-12.370837 14.079617,-11.84325 7.870101,0.591872 13.636752,7.869617 13.008676,15.62302 -0.697283,8.607747 -8.67496,14.903078 -17.166423,14.174103" />
    <path
       style="fill:#ffff00;stroke-width:1.42857"
       d="m 91.82004,135.0618 c 0.621791,-3.78142 1.168853,-7.89856 1.21569,-9.14919 0.0515,-1.37497 2.302506,-2.93821 5.694164,-3.95437 8.220486,-2.46292 12.962426,-8.77627 12.962426,-17.25799 0,-8.908666 -4.87676,-14.370909 -12.83054,-14.370909 -8.797273,0 -13.57636,8.780216 -7.207266,13.241299 2.413493,1.69048 2.693316,3.03883 1.94387,9.36672 -0.74552,6.29476 -1.323044,7.39119 -3.890768,7.38664 -8.439526,-0.0149 -18.015299,-11.77596 -18.015299,-22.126489 0,-13.63576 13.361299,-26.389211 27.6914,-26.431631 10.815583,-0.03202 23.082493,8.824402 27.974963,20.19725 9.13052,21.22448 -5.80464,44.99035 -30.810624,49.02802 l -5.858549,0.94597 z"
       id="path66"
       transform="scale(0.26458333)" />
    <path
       style="fill:#ffff00;stroke-width:0.264583"
       id="path88"
       d="m 23.401813,48.603709 c -0.08032,0.182031 -0.160639,0.364059 -0.24096,0.546089 0,0 2.710166,-1.237204 2.710166,-1.237204 v 0 c 0.08611,-0.180968 0.172216,-0.361937 0.258324,-0.542904 0,0 -2.72753,1.234019 -2.72753,1.234019 z" />
    <path
       style="fill:#ffff00;stroke-width:0.264583"
       id="path90"
       d="m 22.536498,50.832959 c 0.231292,1.564367 0.476369,3.129068 0.925366,4.646636 0,0 2.59256,-1.420085 2.59256,-1.420085 v 0 c -0.477934,-1.490237 -0.721507,-3.040354 -0.875498,-4.596757 0,0 -2.642428,1.370206 -2.642428,1.370206 z" />
    <path
       style="fill:#ffff00;stroke-width:0.264583"
       id="path92"
       d="m 34.40984,46.837457 c 0.662302,1.256471 1.234498,2.659131 2.248519,3.689355 0.189558,0.192585 0.419198,0.341111 0.628798,0.51167 0,0 2.509957,-1.579745 2.509957,-1.579745 v 0 c -0.199456,-0.150652 -0.419418,-0.277443 -0.598369,-0.451956 -1.018841,-0.99359 -1.576932,-2.398652 -2.18736,-3.650602 0,0 -2.601545,1.481278 -2.601545,1.481278 z" />
    <path
       style="fill:#ffff00;stroke-width:0.264583"
       id="path94"
       d="m 42.024802,35.16943 c 1.73895,-0.387895 3.420354,-0.957109 5.074796,-1.610702 0,0 2.297448,-1.806919 2.297448,-1.806919 v 0 c -1.625179,0.661223 -3.282119,1.243606 -5.004556,1.599153 0,0 -2.367688,1.818468 -2.367688,1.818468 z" />
    <path
       style="fill:#0000ff;stroke-width:0.264583"
       id="path384"
       d="m 3.949233,178.4974 c 0.4398819,-1.90713 1.262957,-3.70952 2.2123256,-5.41313 0.160858,-0.15803 0.6944225,-0.55132 0.4825736,-0.47407 -0.2628424,0.0958 -0.6820157,0.25654 -0.6473849,0.53416 0.029874,0.23949 0.4894937,-0.006 0.7215248,0.0602 0.3592381,0.10279 0.6967855,0.27308 1.0305092,0.44115 0.8663467,0.43631 1.8289066,1.07317 2.6398147,1.58401 1.323176,0.84995 2.606357,1.7589 3.934586,2.6011 0.57689,0.3658 1.244468,0.81158 1.902176,1.0411 0.278577,0.0972 0.576046,0.12803 0.864069,0.19205 0.286239,-0.0268 0.579311,-0.0127 0.858719,-0.0804 0.959009,-0.23232 2.491372,-1.24132 3.073862,-1.58972 0.676943,-0.40489 1.073006,-0.71753 1.701784,-1.17931 0,0 -1.336926,0.52967 -1.336926,0.52967 v 0 c -1.246851,0.90443 -1.293537,1.0917 -2.27694,1.37429 -0.26963,0.0775 -0.555453,0.0793 -0.833179,0.11894 -0.284315,-0.0533 -0.577463,-0.0718 -0.852943,-0.16001 -0.655022,-0.20987 -1.34606,-0.65429 -1.917628,-1.00706 -1.34068,-0.82744 -2.629331,-1.73292 -3.949478,-2.59201 -0.836686,-0.53971 -1.7370499,-1.14633 -2.6182907,-1.6219 -0.2451489,-0.1323 -1.3307058,-0.75017 -1.7843029,-0.60951 -1.5757252,0.48863 -1.5540662,0.58814 -2.3154598,1.42999 -0.9302792,1.73586 -1.7398849,3.55549 -2.226645,5.46887 0,0 1.3372334,-0.64844 1.3372334,-0.64844 z" />
    <path
       style="fill:#0000ff;stroke-width:0.264583"
       id="path386"
       d="m 5.0084659,188.29566 c 0.4204528,-0.29025 0.8292994,-0.59808 1.2613584,-0.87076 0.2684513,-0.16942 0.5562005,-0.30622 0.8372972,-0.45371 0.7303312,-0.38321 1.454495,-0.77904 2.196883,-1.13833 1.4342945,-0.69416 2.9091355,-1.36 4.4610945,-1.7553 0.661983,-0.16861 1.347157,-0.22755 2.020735,-0.34133 0.624903,0.0528 1.270378,-0.009 1.874709,0.15824 2.192856,0.60793 4.129029,2.70714 5.70438,4.22409 3.387259,3.2617 0.454707,0.52322 3.739671,3.55514 1.194308,0.92613 2.966595,2.61067 4.619283,2.66746 0.433655,0.0149 0.845796,-0.19428 1.268693,-0.29143 0,0 1.123911,-0.86078 1.123911,-0.86078 v 0 c -0.411303,0.11828 -0.805953,0.35146 -1.233914,0.35485 -1.650614,0.0131 -3.460046,-1.66155 -4.649054,-2.56864 -2.831481,-2.57932 -0.872184,-0.75464 -3.749867,-3.54569 -1.553227,-1.50647 -3.552776,-3.70197 -5.707125,-4.33074 -0.612285,-0.1787 -1.27007,-0.11928 -1.905106,-0.17892 -0.682838,0.11206 -1.37722,0.16827 -2.048514,0.33617 -1.55993,0.39015 -3.040747,1.05335 -4.482871,1.74595 -1.584531,0.76099 -3.9836518,2.09119 -5.3679507,2.93395 -0.459794,0.27992 -0.8797639,0.62055 -1.3196459,0.93082 0,0 1.3560325,-0.57104 1.3560325,-0.57104 z" />
    <path
       style="fill:#0000ff;stroke-width:0.264583"
       id="path388"
       d="m 5.3555741,203.98229 c 1.3892289,-2.26024 3.2643905,-4.33065 5.5527989,-5.71141 0.284585,-0.17171 0.624618,-0.22748 0.936926,-0.34122 0.832568,-0.15253 1.653099,-0.4021 2.497703,-0.4576 0.94573,-0.0621 1.899444,0.001 2.8413,0.10681 3.725573,0.41811 7.206386,1.86908 10.619091,3.32616 2.391386,0.96472 4.684059,2.35339 7.24835,2.84085 0.385622,0.0733 0.778756,0.0993 1.168135,0.14889 1.017852,-0.0586 1.545551,-0.01 2.525607,-0.4025 0.984967,-0.39443 3.108825,-1.90473 3.683071,-2.28587 0,0 -1.303887,0.51806 -1.303887,0.51806 v 0 c 0.09067,0.63986 0.102147,0.33192 -1.257954,0.90796 -0.951204,0.40287 -1.489575,0.36498 -2.484176,0.43901 -0.385926,-0.045 -0.775313,-0.0665 -1.157779,-0.13486 -2.569337,-0.45957 -4.917792,-1.81949 -7.316332,-2.7687 -3.436295,-1.44053 -6.935816,-2.89295 -10.66891,-3.3486 -0.940894,-0.11484 -1.893403,-0.19183 -2.840027,-0.14311 -0.846122,0.0435 -1.671378,0.27887 -2.507067,0.4183 -1.078495,0.55751 -2.192575,1.051 -3.2354873,1.67254 -0.6393468,0.38103 -1.2259825,0.848 -1.7962911,1.32622 -1.5193698,1.27403 -2.8053276,2.82428 -3.8735164,4.48781 0,0 1.3684449,-0.59874 1.3684449,-0.59874 z" />
    <path
       style="fill:#0000ff;stroke-width:0.264583"
       id="path390"
       d="m 58.501925,205.96976 c 0.987263,-1.86349 2.166263,-3.64185 3.731834,-5.0746 0.319998,-0.29285 0.674751,-0.54529 1.012126,-0.81794 -0.04219,0.0605 -0.200284,0.17972 -0.126563,0.18144 0.421367,0.01 0.833866,-0.17461 1.2549,-0.15512 1.103437,0.0511 2.096725,0.48655 3.083341,0.93332 0.474654,0.21494 3.599963,1.80759 3.88666,1.95301 3.033188,1.41047 6.083197,2.97096 9.382411,3.67464 2.112346,0.45054 2.557182,0.33535 4.73157,0.33927 5.473223,-0.46992 10.642282,-2.38331 15.822466,-4.07117 1.16622,-0.37999 2.33708,-0.74563 3.50562,-1.11845 3.48603,-1.03553 7.04745,-2.28207 10.74004,-1.73986 1.59522,0.23423 2.16024,0.56545 3.61873,1.16217 1.40467,0.68949 2.7177,1.54059 4.03016,2.38689 0.7601,0.49014 1.14807,0.77643 1.956,1.16934 0.31843,0.15486 0.65182,0.27684 0.97773,0.41526 0.90412,0.24644 1.25195,0.39557 2.21278,0.42742 2.5297,0.0839 4.90492,-0.99362 7.20805,-1.88439 4.48542,-1.7489 8.78558,-3.92127 13.20807,-5.8147 1.31767,-0.51092 2.67244,-1.07654 4.11097,-1.1117 1.19102,-0.0291 2.15139,0.35495 3.22811,0.7878 1.72477,0.75438 3.33335,1.77062 5.12107,2.3816 0.34543,0.11805 0.70014,0.20693 1.05021,0.3104 0.35962,0.0627 0.71584,0.14984 1.07888,0.18811 1.82258,0.19213 3.71931,-0.0262 5.44563,-0.63903 0.49962,-0.17737 0.97741,-0.41109 1.46612,-0.61663 2.55053,-1.21255 4.98482,-2.64796 7.50242,-3.92413 1.44477,-0.73771 2.99288,-1.08988 4.61184,-0.79716 0.97613,0.17649 2.73031,0.76276 3.64174,1.04904 2.50792,0.84321 1.28043,0.42992 3.68249,1.23973 0,0 1.13637,-0.77089 1.13637,-0.77089 v 0 c -2.4132,-0.79935 -1.1825,-0.38774 -3.69182,-1.23574 -0.71542,-0.23093 -2.83013,-0.93916 -3.6212,-1.09984 -1.62359,-0.32978 -3.18777,-0.0161 -4.64686,0.72404 -2.52814,1.27702 -4.96783,2.72206 -7.52117,3.95092 -1.20896,0.52097 -1.595,0.75386 -2.86614,1.04824 -1.64863,0.3818 -3.38045,0.39722 -5.03741,0.0756 -1.00224,-0.28885 -1.09159,-0.28293 -2.05437,-0.68685 -1.40535,-0.58959 -2.71897,-1.37362 -4.11151,-1.99098 -1.07357,-0.44421 -2.08475,-0.85709 -3.27555,-0.84242 -1.46144,0.018 -2.83944,0.59015 -4.17551,1.11081 -4.43106,1.90422 -8.73719,4.09229 -13.23543,5.84244 -2.26584,0.87672 -4.60475,1.93805 -7.09227,1.88143 -0.9414,-0.0214 -1.29501,-0.16683 -2.18355,-0.39888 -0.32419,-0.13381 -0.65572,-0.25102 -0.97255,-0.40141 -0.78599,-0.37309 -1.22742,-0.68294 -1.96842,-1.14951 -1.33198,-0.83868 -2.65712,-1.69429 -4.07322,-2.38816 -1.48431,-0.61122 -2.04005,-0.94245 -3.66632,-1.18289 -3.78035,-0.55893 -7.28907,0.70739 -10.85594,1.76598 -1.17202,0.37491 -2.34608,0.74346 -3.51604,1.12475 -5.144568,1.6766 -10.281469,3.55478 -15.713431,4.04045 -2.147623,0.005 -2.615237,0.11977 -4.706673,-0.31258 -3.297073,-0.68158 -6.35354,-2.21781 -9.368163,-3.65135 -0.42773,-0.22319 -3.266649,-1.71353 -3.853407,-1.98842 -1.147699,-0.53766 -3.057642,-1.3936 -4.375843,-0.89733 -0.813668,0.30632 -1.531861,0.82278 -2.29779,1.23418 -0.33192,0.2762 -0.680678,0.53335 -0.995759,0.82862 -1.569498,1.4708 -2.739195,3.279 -3.794842,5.13593 0,0 1.359413,-0.60069 1.359413,-0.60069 z" />
    <path
       style="fill:#0000ff;stroke-width:0.264583"
       id="path392"
       d="m 177.24139,168.09259 c 0.75739,-0.61965 0.5558,-0.47606 1.60974,-1.19215 1.33362,-0.9061 2.10344,-1.3976 3.62666,-1.99695 0.54862,-0.21587 1.11942,-0.37045 1.67914,-0.55568 1.44535,-0.23953 1.75082,-0.37951 3.21559,-0.27152 1.96201,0.14464 3.85488,0.82605 5.71552,1.41447 0.89867,0.25563 1.84871,0.5882 2.80312,0.51312 1.28327,-0.10095 2.23866,-0.66409 3.32863,-1.27736 0.73416,-0.47303 1.46832,-0.94607 2.20248,-1.4191 0,0 -1.32145,0.52242 -1.32145,0.52242 v 0 c 0.073,0.002 0.1461,0.004 0.21916,0.006 -1.05189,0.61245 -2.00916,1.19772 -3.25536,1.32276 -0.95035,0.0953 -1.90558,-0.2232 -2.80426,-0.467 -1.87721,-0.57798 -3.79004,-1.26832 -5.76122,-1.4338 -1.48225,-0.12444 -1.78585,0.014 -3.25221,0.24366 -0.56489,0.18306 -1.14067,0.33542 -1.69467,0.54917 -1.70905,0.65939 -2.91053,1.40779 -4.5421,2.39536 -0.52365,0.31696 -2.02811,1.34054 -2.5974,1.76096 -0.19023,0.14049 -0.36683,0.29857 -0.55024,0.44786 0,0 1.37887,-0.56268 1.37887,-0.56268 z" />
    <path
       style="fill:#0000ff;stroke-width:0.264583"
       id="path394"
       d="m 178.65668,177.17616 c 1.03024,-0.90664 2.15513,-1.68982 3.32061,-2.41124 0.0998,-0.0618 0.21053,-0.10391 0.31662,-0.15416 1.8953,-0.89773 1.03988,-0.53116 2.89773,-1.24012 0.44211,-0.0912 0.87772,-0.22325 1.32632,-0.27354 1.3696,-0.15356 2.71046,0.14367 4.03338,0.45101 0.88277,0.20509 1.76199,0.42526 2.64433,0.63222 0.46428,0.0629 0.92524,0.15935 1.39285,0.18864 2.22661,0.13946 4.49978,-0.29388 6.62975,-0.90195 0.28479,-0.10403 0.56959,-0.20806 0.85438,-0.31209 0,0 1.13705,-0.88993 1.13705,-0.88993 v 0 c -0.28555,0.1091 -0.5711,0.21819 -0.85666,0.32729 -2.11529,0.63051 -4.39516,1.09112 -6.61481,0.96437 -0.46346,-0.0265 -0.92062,-0.12024 -1.38092,-0.18036 -4.54647,-1.0514 2.05053,0.47998 -2.64863,-0.63058 -1.3318,-0.31475 -2.68409,-0.6362 -4.0663,-0.49996 -0.45562,0.0449 -0.89894,0.17418 -1.34842,0.26127 -0.46972,0.17703 -0.94671,0.33584 -1.40916,0.53108 -2.75378,1.16262 -5.28635,2.8107 -7.61089,4.67644 0,0 1.38277,-0.53839 1.38277,-0.53839 z" />
    <path
       style="fill:#0000ff;stroke-width:0.264583"
       id="path396"
       d="m 180.1041,188.89541 c 0.73199,-0.54327 0.99435,-0.77078 1.82996,-1.23629 0.0293,-0.0163 -0.0716,0.10322 -0.0399,0.0924 1.24528,-0.42643 1.1093,-0.60996 2.41773,-0.75602 0.40701,-0.0454 0.81905,-0.005 1.22857,-0.008 2.47513,0.24816 4.66998,1.47 6.88609,2.50341 1.0227,0.41783 2.06601,0.9449 3.20462,0.92165 0.32166,-0.007 0.66222,-0.0208 0.9516,-0.16145 2.08138,-1.01144 1.86694,-0.99516 2.99516,-2.44097 0.26523,-0.48697 0.53047,-0.97393 0.7957,-1.4609 0,0 -1.26711,0.56652 -1.26711,0.56652 v 0 c -0.27445,0.48233 -0.54889,0.96465 -0.82334,1.44697 -0.2985,0.35851 -0.67368,0.66512 -0.89551,1.07552 -0.0553,0.10227 0.45724,-0.0833 0.34429,-0.0557 -0.30854,0.0752 -0.61461,0.18184 -0.93171,0.19891 -1.13203,0.061 -2.17355,-0.46688 -3.1899,-0.87418 -2.23256,-1.03732 -4.43409,-2.27376 -6.92105,-2.55393 -0.41562,-0.005 -0.83301,-0.054 -1.24684,-0.0153 -0.83409,0.0781 -1.69943,0.35873 -2.44567,0.72915 -1.48448,0.73686 -2.94249,1.5598 -4.2532,2.57909 0,0 1.3605,-0.55068 1.3605,-0.55068 z" />
    <path
       style="fill:#0000ff;stroke-width:0.264583"
       id="path398"
       d="m 20.317435,191.21728 c 0.490197,-0.31686 0.965238,-0.70633 1.498469,-0.94981 0.105027,-0.048 -0.378429,0.25047 -0.266835,0.22085 0.448982,-0.11917 0.868289,-0.33048 1.302434,-0.49572 0.542057,-0.11564 1.084115,-0.23127 1.626172,-0.3469 1.715612,-0.31765 3.42119,-0.26275 5.10063,0.22273 1.728488,0.49967 3.290054,1.40113 4.855324,2.25967 1.796375,1.02614 3.559579,2.11688 5.446593,2.97378 0.378015,0.17166 1.850149,0.77737 2.281933,0.95603 1.966037,0.67414 3.80836,1.64764 5.727983,2.43509 1.42616,0.58503 1.523307,0.58727 2.959193,1.05261 1.134417,0.32207 2.283717,0.61226 3.473537,0.51751 0.877501,-0.0699 1.175853,-0.20671 2.006494,-0.45609 0,0 1.136219,-0.87894 1.136219,-0.87894 v 0 c -0.320736,0.10283 -0.635235,0.22765 -0.962205,0.3085 -1.575509,0.38956 -2.958282,0.16742 -4.497496,-0.2777 -1.414547,-0.44737 -1.559888,-0.46305 -2.96237,-1.03384 -1.916501,-0.77998 -3.741457,-1.774 -5.696196,-2.45991 -0.584687,-0.23547 -1.737963,-0.69436 -2.289281,-0.9409 -1.894379,-0.84713 -3.676618,-1.91241 -5.470559,-2.9489 -1.570998,-0.86552 -3.14125,-1.77945 -4.872818,-2.29616 -1.685462,-0.50296 -3.401372,-0.58079 -5.130407,-0.27207 -0.541074,0.10581 -1.090921,0.17385 -1.623223,0.31742 -1.839517,0.49612 -3.467893,1.60113 -5.030427,2.65477 0,0 1.386836,-0.56202 1.386836,-0.56202 z" />
    <path
       style="fill:#0000ff;stroke-width:0.264583"
       id="path400"
       d="m 15.293928,181.45829 c 1.861159,-0.62801 3.771929,-1.0576 5.696047,-1.44218 2.690496,-0.53872 5.427285,-0.3853 8.149529,-0.36941 2.449057,-0.0241 4.865796,-0.44945 7.259503,-0.92921 0,0 1.118216,-0.84729 1.118216,-0.84729 v 0 c -2.382335,0.49344 -4.789487,0.91063 -7.229636,0.94309 -1.285767,-0.003 -2.574923,-0.0652 -3.860263,-0.0472 -1.448435,0.0203 -2.891155,0.17772 -4.320644,0.40483 -1.89557,0.3723 -3.789456,0.75885 -5.621672,1.38155 0,0 -1.19108,0.90582 -1.19108,0.90582 z" />
    <g
       sodipodi:type="inkscape:box3d"
       id="g414"
       style="fill:#0000ff"
       inkscape:perspectiveID="#perspective412"
       inkscape:corner0="-0.0043180168 : 0.10252007 : 0 : 1"
       inkscape:corner7="-0.20053131 : 0.036067839 : 0.25 : 1">
      <path
         sodipodi:type="inkscape:box3dside"
         id="path426"
         style="fill:#e9e9ff;fill-rule:evenodd;stroke:none;stroke-linejoin:round"
         inkscape:box3dsidetype="11"
         d="m 126.43677,105.93692 23.63917,-7.957783 v 63.319873 l -23.63917,-2.01603 z"
         points="150.07594,97.979137 150.07594,161.29901 126.43677,159.28298 126.43677,105.93692 " />
      <path
         sodipodi:type="inkscape:box3dside"
         id="path416"
         style="fill:#353564;fill-rule:evenodd;stroke:none;stroke-linejoin:round"
         inkscape:box3dsidetype="6"
         d="m 105.45536,95.250001 v 66.740419 l 20.98141,-2.70744 v -53.34606 z"
         points="105.45536,161.99042 126.43677,159.28298 126.43677,105.93692 105.45536,95.250001 " />
      <path
         sodipodi:type="inkscape:box3dside"
         id="path424"
         style="fill:#afafde;fill-rule:evenodd;stroke:none;stroke-linejoin:round"
         inkscape:box3dsidetype="13"
         d="m 105.45536,161.99042 25.88187,3.31094 18.73871,-4.00235 -23.63917,-2.01603 z"
         points="131.33723,165.30136 150.07594,161.29901 126.43677,159.28298 105.45536,161.99042 " />
      <path
         sodipodi:type="inkscape:box3dside"
         id="path418"
         style="fill:#4d4d9f;fill-rule:evenodd;stroke:none;stroke-linejoin:round"
         inkscape:box3dsidetype="5"
         d="m 105.45536,95.250001 25.88187,-13.069127 18.73871,15.798263 -23.63917,7.957783 z"
         points="131.33723,82.180874 150.07594,97.979137 126.43677,105.93692 105.45536,95.250001 " />
      <path
         sodipodi:type="inkscape:box3dside"
         id="path422"
         style="fill:#d7d7ff;fill-rule:evenodd;stroke:none;stroke-linejoin:round"
         inkscape:box3dsidetype="14"
         d="m 131.33723,82.180874 v 83.120486 l 18.73871,-4.00235 V 97.979137 Z"
         points="131.33723,165.30136 150.07594,161.29901 150.07594,97.979137 131.33723,82.180874 " />
      <path
         sodipodi:type="inkscape:box3dside"
         id="path420"
         style="fill:#8686bf;fill-rule:evenodd;stroke:none;stroke-linejoin:round"
         inkscape:box3dsidetype="3"
         d="m 105.45536,95.250001 25.88187,-13.069127 v 83.120486 l -25.88187,-3.31094 z"
         points="131.33723,82.180874 131.33723,165.30136 105.45536,161.99042 105.45536,95.250001 " />
    </g>
    <ellipse
       style="fill:#008080;stroke-width:0.264583"
       id="path47"
       ry="5.1026807"
       rx="9.5438995"
       cy="206.75301"
       cx="31.088541" />
    <path
       style="fill:#ff8080;stroke-width:0.714286"
       d="m 103.94307,798.90294 c -10.228048,-2.2181 -19.551151,-8.40335 -21.481148,-14.2513 -3.294983,-9.9839 9.514021,-19.75834 28.371148,-21.64979 21.93447,-2.20012 42.39156,6.783 42.33252,18.58906 -0.0375,7.50855 -10.5472,15.20353 -24.19288,17.71359 -5.45183,1.00283 -19.60042,0.77584 -25.02964,-0.40156 z"
       id="path53"
       transform="scale(0.26458333)" />
    <path
       style="fill:#e9afaf;stroke-width:0.264583"
       id="path55"
       sodipodi:type="arc"
       sodipodi:cx="42.428555"
       sodipodi:cy="201.20641"
       sodipodi:rx="4.4785881"
       sodipodi:ry="5.0655971"
       sodipodi:start="0"
       sodipodi:end="4.9316196"
       sodipodi:arc-type="slice"
       d="m 46.907143,201.20641 a 4.4785881,5.0655971 0 0 1 -2.993943,4.77916 4.4785881,5.0655971 0 0 1 -4.978918,-1.61059 4.4785881,5.0655971 0 0 1 -0.307065,-5.84699 4.4785881,5.0655971 0 0 1 4.775335,-2.26594 l -0.973997,4.94436 z" />
    <circle
       style="fill:#280b0b;stroke-width:0.264583"
       id="path63"
       sodipodi:type="arc"
       sodipodi:cx="26.44327"
       sodipodi:cy="207.2187"
       sodipodi:rx="1.3229166"
       sodipodi:ry="1.5119048"
       sodipodi:start="0"
       sodipodi:end="4.8184613"
       sodipodi:arc-type="slice"
       d="m 27.766186,207.2187 a 1.3229166,1.5119048 0 0 1 -0.849243,1.41167 1.3229166,1.5119048 0 0 1 -1.45739,-0.40076 1.3229166,1.5119048 0 0 1 -0.194401,-1.69866 1.3229166,1.5119048 0 0 1 1.31818,-0.81565 l -0.140062,1.5034 z" />
    <ellipse
       style="fill:#808080;stroke-width:0.264583"
       id="path48"
       cx="114.12409"
       cy="250.96609"
       rx="52.652096"
       ry="13.630746" />
    <path
       style="fill:none;fill-rule:evenodd;stroke:#000000;stroke-width:0.264583px;stroke-linecap:butt;stroke-linejoin:miter;stroke-opacity:1"
       d="M 93.195681,238.4584 112.2532,217.02285"
       id="path50"
       inkscape:connector-type="polyline"
       inkscape:connector-curvature="0" />
    <path
       style="fill:#666666;fill-rule:evenodd;stroke:#000000;stroke-width:0.264583px;stroke-linecap:butt;stroke-linejoin:miter;stroke-opacity:1"
       d="m 112.2532,217.02285 1.87089,20.3125"
       id="path52"
       inkscape:connector-type="polyline"
       inkscape:connector-curvature="0" />
    <path
       style="fill:#666666;stroke-width:1.01015"
       d="m 357.81889,896.7239 c 1.94454,-2.17176 17.36038,-19.5172 34.25742,-38.54542 16.89704,-19.02822 30.90278,-34.41586 31.12387,-34.19477 0.22109,0.22109 1.72269,14.88254 3.33689,32.581 1.6142,17.69846 3.12634,33.82521 3.36031,35.83721 l 0.4254,3.65818 -18.82681,0.68994 c -19.24605,0.70531 -40.33007,2.04416 -51.1517,3.24818 l -6.06092,0.67434 z"
       id="path54"
       transform="scale(0.26458333)" />
    <path
       style="display:inline;fill:none;fill-rule:evenodd;stroke:#000000;stroke-width:0.264583px;stroke-linecap:butt;stroke-linejoin:miter;stroke-opacity:1"
       d="m 95.682491,252.03516 20.045219,23.51972"
       id="path70"
       inkscape:connector-type="polyline"
       inkscape:connector-curvature="0" />
    <path
       style="display:inline;fill:none;fill-rule:evenodd;stroke:#000000;stroke-width:0.264583px;stroke-linecap:butt;stroke-linejoin:miter;stroke-opacity:1"
       d="m 95.682489,252.03516 18.441601,-1.06907"
       id="path72"
       inkscape:connector-type="polyline"
       inkscape:connector-curvature="0"
       inkscape:connection-end="#path48" />
    <path
       style="fill:none;fill-rule:evenodd;stroke:#000000;stroke-width:0.264583px;stroke-linecap:butt;stroke-linejoin:miter;stroke-opacity:1"
       d="m 115.01291,264.59466 0.71479,10.96023"
       id="path76"
       inkscape:connector-type="polyline"
       inkscape:connector-curvature="0"
       inkscape:connection-start="#path48" />
    <path
       style="fill:#666666;stroke-width:1.01015"
       d="m 419.71101,1018.99 -15.38454,-18.1193 14.26162,-0.2812 c 7.84389,-0.1546 14.43558,-0.1071 14.6482,0.1055 0.65329,0.6533 2.51691,28.548 2.17806,32.6013 l -0.31879,3.8131 z"
       id="path78"
       transform="scale(0.26458333)" />
    <path
       style="fill:#ffff00;stroke-width:0.264583"
       id="path82"
       d="m 70.233499,250.07554 c 1.06271,0.45931 2.169203,0.80475 3.298492,1.05467 1.332391,0.20139 3.307829,-0.55338 2.837744,-2.09981 -0.287343,-0.53994 -0.827043,-0.69538 -1.390404,-0.78553 -1.100016,-0.10942 -2.798768,0.79469 -3.233336,1.58151 0,0 1.947947,-0.84654 1.947947,-0.84654 v 0 c 0.5387,-0.5885 0.145392,-0.1314 -1.50283,0.77283 -0.07659,0.042 0.144936,-0.099 0.22412,-0.13587 0.262681,-0.12243 0.545002,-0.1952 0.833808,-0.15032 0.478798,0.0537 0.996929,0.12073 1.26011,0.57667 0.04541,0.18347 0.09847,0.27629 0.01947,0.46771 -0.03315,0.0803 -0.231158,0.24763 -0.151989,0.2118 0.542615,-0.24557 1.04653,-0.56897 1.569796,-0.85345 -0.103243,0.0289 -0.202925,0.0774 -0.309729,0.0868 -0.125912,0.0111 -0.252209,-0.0174 -0.378312,-0.026 -1.120203,-0.22506 -2.223569,-0.54573 -3.263569,-1.02483 0,0 -1.76131,1.17038 -1.76131,1.17038 z" />
    <path
       style="fill:#ffff00;stroke-width:0.264583"
       id="path89"
       d="m 66.333083,252.90048 c 0.157819,0.4737 0.308716,0.94864 0.499304,1.41049 0.05361,0.11097 0.08637,0.23297 0.203506,0.29793 0.104297,0.0578 0.193694,0.0259 0.289013,-0.0294 0.570428,-0.33102 0.446571,-0.22538 0.719809,-0.50229 0.03543,-0.0436 0.06933,-0.0885 0.106297,-0.13075 0.02924,-0.0334 0.131807,-0.11633 0.09218,-0.0962 -0.128257,0.065 -0.258413,0.13439 -0.362757,0.23329 -0.02093,0.0198 0.05768,0.0162 0.07859,0.036 0.072,0.0683 0.177371,0.26008 0.220993,0.33286 0.0316,0.0587 0.190508,0.35456 0.226536,0.41782 0.03264,0.0573 0.05423,0.12388 0.101505,0.16987 0.04476,0.0436 0.103344,0.0779 0.164767,0.0892 0.1955,0.036 0.336904,-0.0612 0.507656,-0.13488 0.446711,-0.21753 0.818358,-0.49346 1.179396,-0.82094 0.05915,-0.0537 0.111908,-0.11486 0.175847,-0.1627 0.04711,-0.0352 0.196011,-0.12677 0.154832,-0.0847 -0.09503,0.097 -0.212966,0.16849 -0.319448,0.25273 0.03737,0.031 0.08255,0.0545 0.112125,0.093 0.13797,0.17969 0.187542,0.43791 0.253733,0.64852 0.08016,0.25507 0.04628,0.15729 0.13331,0.38267 0.02574,0.022 0.04568,0.0782 0.07725,0.0659 0.196017,-0.0759 0.376907,-0.18918 0.54985,-0.30863 0.04414,-0.0305 0.06184,-0.0877 0.09008,-0.13335 0.08477,-0.1369 0.153633,-0.28059 0.242967,-0.41476 -0.126756,0.0958 -0.293629,0.15411 -0.380272,0.28727 -0.03397,0.0522 0.06185,0.10859 0.08508,0.16638 0.03981,0.0991 0.07041,0.20157 0.103602,0.30303 0.10949,0.33473 0.20515,0.67287 0.297387,1.01265 -5.29e-4,0.0328 0.140158,0.50168 0.250388,0.46032 0.574104,-0.2154 0.647383,-0.34994 0.955942,-0.77129 0.0043,-0.006 0.302753,-0.44104 0.321226,-0.46167 0.03882,-0.0434 0.18425,-0.14234 0.137662,-0.10744 -0.114389,0.0857 -0.261196,0.14131 -0.34109,0.25982 -0.02689,0.0399 0.06743,0.0704 0.08976,0.113 0.03759,0.0718 0.05873,0.15097 0.0881,0.22645 0.08672,0.29786 0.159173,0.59973 0.246592,0.8974 0.0027,0.009 0.11494,0.39678 0.155175,0.4325 0.04083,0.0363 0.107246,0.0206 0.160872,0.0309 0.22157,-0.12491 0.452676,-0.23425 0.664713,-0.37474 0.128386,-0.0851 0.456115,-0.44222 0.544986,-0.54165 0.235167,-0.26312 0.456404,-0.54004 0.681445,-0.81183 0.15635,-0.19217 0.307403,-0.38723 0.450614,-0.58931 0,0 -0.480562,0.20864 -0.480562,0.20864 v 0 c -0.140756,0.19875 -0.289674,0.39083 -0.441468,0.5813 -0.221451,0.27049 -0.439248,0.54661 -0.674764,0.8051 -0.09364,0.10278 -0.188593,0.20463 -0.289378,0.30042 -0.08665,0.0823 -0.241506,0.11786 -0.272277,0.23336 -0.02305,0.0865 0.160946,-0.0784 0.241419,-0.11753 -0.04408,0.007 -0.09608,0.0463 -0.132228,0.0202 -0.04283,-0.0309 -0.158099,-0.41898 -0.159025,-0.42206 -0.08984,-0.29887 -0.161857,-0.60279 -0.245277,-0.90343 -0.03,-0.0808 -0.05092,-0.16557 -0.09,-0.24238 -0.02845,-0.0559 -0.04856,-0.16031 -0.110747,-0.15214 -0.581382,0.0764 -0.73147,0.40821 -1.015937,0.81783 -0.06099,0.0802 -0.117813,0.16368 -0.182985,0.24049 -0.05693,0.0671 -0.267092,0.16547 -0.182735,0.1905 0.11344,0.0337 0.229058,-0.0761 0.322151,-0.14913 0.02394,-0.0188 -0.06158,-0.0168 -0.08261,-0.0388 -0.09499,-0.0994 -0.12315,-0.25801 -0.161367,-0.37887 -0.09579,-0.33939 -0.194347,-0.67779 -0.298841,-1.01463 -0.0325,-0.10476 -0.0604,-0.21116 -0.09938,-0.31368 -0.02652,-0.0697 -0.02204,-0.20358 -0.09664,-0.2019 -0.193818,0.004 -0.35995,0.14412 -0.539928,0.21618 -0.08307,0.13501 -0.151788,0.28066 -0.242408,0.41079 -0.03002,0.0431 -0.150373,0.13177 -0.0986,0.12292 0.565502,-0.0966 0.478364,-0.12063 0.31641,-0.2081 -0.08596,-0.2123 -0.0588,-0.13455 -0.136136,-0.37667 -0.07082,-0.22173 -0.122145,-0.48376 -0.262163,-0.67602 -0.03533,-0.0485 -0.08701,-0.0827 -0.130511,-0.12399 -0.160025,0.0651 -0.544819,0.18008 -0.739161,0.33435 -0.135168,0.10729 -0.251193,0.23715 -0.384932,0.34622 -0.08254,0.0673 -0.190552,0.10836 -0.253931,0.19396 -0.03532,0.0477 0.10877,-0.0476 0.163153,-0.0714 -0.141547,0.0695 -0.302482,0.17807 -0.473676,0.16649 -0.05419,-0.004 -0.110135,-0.0263 -0.150347,-0.0628 -0.0483,-0.0439 -0.0697,-0.11036 -0.102491,-0.16678 -0.06693,-0.11516 -0.165822,-0.30346 -0.227433,-0.41905 -0.02646,-0.0458 -0.250391,-0.46147 -0.330981,-0.43397 -0.382881,0.1307 -0.519954,0.25512 -0.733621,0.51674 -0.246369,0.23453 -0.121338,0.0906 0.170053,-0.0231 0.04782,-0.0187 -0.08183,0.0658 -0.130722,0.0814 -0.184227,0.0589 -0.263914,-0.15164 -0.320009,-0.27564 -0.193759,-0.45825 -0.347255,-0.9303 -0.483425,-1.40865 0,0 -0.466027,0.25043 -0.466027,0.25043 z" />
    <path
       style="fill:none;stroke:#000000;stroke-width:0.264583px;stroke-linecap:butt;stroke-linejoin:miter;stroke-opacity:1"
       d="m 30.994048,263.4494 c 12.310396,2.96151 22.268238,13.04698 35.151784,13.60716 3.065423,0.13327 6.737914,0.0656 9.071428,-2.26788"
       id="path111" />
    <path
       style="fill:none;stroke:#000000;stroke-width:0.264583px;stroke-linecap:butt;stroke-linejoin:miter;stroke-opacity:1"
       d="m 26.458333,272.52083 c 3.664048,1.84383 7.858358,1.64536 11.717261,2.64583 1.575617,0.40849 8.161186,2.94667 9.827381,3.77976 1.063122,0.53158 1.934858,1.41346 3.023809,1.88989 1.555044,0.68033 3.630851,0.77804 5.291667,1.13393 6.112692,1.30984 12.309189,1.91505 18.520833,2.64583"
       id="path113" />
    <path
       style="fill:none;stroke:#000000;stroke-width:0.264583px;stroke-linecap:butt;stroke-linejoin:miter;stroke-opacity:1"
       d="m 8.6934523,232.83333 c 4.9937957,0.14087 6.8286057,7.09545 8.3154757,10.96131 0.186482,0.48485 0.0359,1.12096 0.377977,1.51191 0.598278,0.68374 1.660074,0.83659 2.267857,1.5119 0.565396,0.62822 0.605948,1.60788 1.133928,2.26786 0.503968,0.62996 1.21863,1.0644 1.889881,1.5119 5.173653,3.4491 5.274721,3.54077 10.96131,3.02381"
       id="path115" />
    <path
       style="fill:none;stroke:#000000;stroke-width:0.264583px;stroke-linecap:butt;stroke-linejoin:miter;stroke-opacity:1"
       d="m 35.52976,222.62797 c 0.490474,1.67683 1.061003,9.37648 1.889882,10.20536"
       id="path119" />
    <ellipse
       style="fill:#ff0000;stroke-width:0.264583"
       id="path129"
       cx="38.687263"
       cy="236.16605"
       rx="0.86862594"
       ry="0.90203464" />
    <path
       style="fill:#ff0000;stroke-width:0.264583"
       id="path135"
       d="m 33.250804,221.22914 c -0.0051,0.11477 0.0016,0.23067 -0.01543,0.3443 -0.07448,0.50042 -0.258495,1.06146 -0.404841,1.52751 -0.12323,0.39243 -0.257781,0.78123 -0.383172,1.17297 -0.47306,1.47792 -0.330658,1.01926 -0.734145,2.53784 -0.366223,1.50677 -0.636469,3.04147 -0.639535,4.59609 -0.0016,0.86003 0.03709,1.0443 0.119745,1.8894 0.12324,1.11247 0.377055,2.20572 0.5089,3.31686 0.06805,0.57347 0.06353,0.70749 0.08631,1.26369 0.01169,0.84229 -0.142116,1.67365 -0.338204,2.48916 -0.137988,0.51949 -0.316021,1.0289 -0.563785,1.50629 -0.113569,0.24261 -0.290406,0.44647 -0.416025,0.68195 -0.02461,0.0461 -0.07144,0.0893 -0.0677,0.14149 0.0034,0.048 0.05742,0.0772 0.08613,0.11581 0.103582,0.0214 0.20501,0.0614 0.31074,0.0642 0.635381,0.0171 1.551569,-0.11589 2.128993,-0.18814 1.417207,-0.17731 2.827415,-0.39501 4.238221,-0.61636 0.931341,-0.15327 1.860208,-0.32186 2.787343,-0.49875 0.234976,-0.0448 1.118769,-0.21758 1.373195,-0.27676 0.21305,-0.0496 0.42359,-0.10935 0.635386,-0.16402 0.215805,-0.069 0.434084,-0.13061 0.647415,-0.20688 0.327728,-0.11716 1.01478,-0.40975 1.332552,-0.53814 0.610619,-0.24671 1.224087,-0.48559 1.833153,-0.73621 0.513421,-0.19784 0.986274,-0.46683 1.454282,-0.75495 0.198149,-0.12198 0.376857,-0.28291 0.55245,-0.43436 0.09151,-0.13318 0.263255,-0.16082 0.374711,-0.26585 0.05691,-0.0536 -0.278456,0.12888 -0.200583,0.1217 0.09033,-0.008 0.160861,-0.0839 0.241477,-0.12547 0.312274,-0.16108 0.126939,-0.0601 0.415017,-0.22236 0.202168,-0.12898 0.415264,-0.24225 0.606507,-0.38694 0.05864,-0.0444 0.09487,-0.1128 0.13525,-0.17424 0.120838,-0.18385 0.222216,-0.40766 0.263633,-0.62474 0.01291,-0.0677 0.01307,-0.13722 0.01961,-0.20583 -0.01495,-0.0767 -0.01969,-0.15601 -0.04482,-0.22995 -0.0617,-0.18157 -0.189796,-0.37501 -0.300799,-0.5261 -0.225661,-0.30712 -0.431618,-0.54498 -0.71074,-0.81404 -0.165023,-0.15907 -0.343051,-0.30407 -0.514575,-0.45611 -0.762431,-0.64008 -1.607738,-1.16885 -2.407819,-1.75819 -0.506416,-0.37303 -0.569722,-0.43816 -1.046549,-0.83676 -0.580573,-0.51717 -1.158716,-1.05121 -1.574237,-1.71538 -0.269962,-0.43151 -0.312734,-0.57388 -0.520456,-1.04252 -0.472959,-1.20727 -0.766236,-2.47288 -1.159436,-3.70627 -0.237961,-0.72767 -0.585848,-1.42659 -1.031388,-2.05068 -0.281496,-0.3943 -0.422579,-0.52982 -0.747702,-0.89026 -0.520817,-0.51454 -1.019252,-1.05253 -1.570667,-1.53532 -0.285094,-0.24961 -0.463439,-0.38436 -0.757703,-0.61634 -0.414351,-0.29449 -0.826355,-0.59781 -1.26332,-0.85888 -0.148108,-0.0885 -0.400124,-0.2177 -0.55337,-0.29792 -0.358349,-0.16803 -0.669841,-0.41945 -1.021371,-0.59825 -0.168789,0.10992 -0.363385,0.18789 -0.506368,0.32975 -0.04071,0.0404 -0.0031,0.11483 5.29e-4,0.17207 0.01834,0.28598 0.07949,0.56836 0.149723,0.84521 0.03723,0.20698 0.140284,0.39885 0.175191,0.60616 0.01847,0.10968 0.0076,0.15195 -0.0021,0.26132 -0.04452,0.2551 -0.198646,0.47116 -0.339201,0.6829 -0.126024,0.18568 -0.259178,0.36446 -0.36427,0.56378 -0.155755,0.30246 -0.244772,0.62857 -0.324803,0.95728 -0.07239,0.27862 -0.06979,0.56724 -0.101902,0.85104 -0.0075,0.037 -0.01505,0.0739 -0.0226,0.11091 0,0 0.473054,-0.22997 0.473054,-0.22997 v 0 c 0.0067,-0.0382 0.01347,-0.0765 0.02021,-0.11473 0.02598,-0.28192 0.03092,-0.56702 0.102026,-0.84305 0.08055,-0.32607 0.171813,-0.64943 0.333354,-0.94639 0.109566,-0.19566 0.244433,-0.37282 0.366702,-0.56018 0.141017,-0.21909 0.292502,-0.44185 0.326485,-0.70634 0.0069,-0.12141 0.01601,-0.15542 -0.0063,-0.27649 -0.03805,-0.20635 -0.138816,-0.3975 -0.178996,-0.60352 -0.05305,-0.20795 -0.09836,-0.41342 -0.122563,-0.62712 -0.0078,-0.0684 -0.01693,-0.13704 -0.01738,-0.20592 -2.65e-4,-0.0507 0.06576,-0.1543 0.01516,-0.15133 -0.150014,0.009 -0.277027,0.11655 -0.415542,0.17482 0.360855,0.16335 0.671378,0.42477 1.033248,0.58839 0.165143,0.0859 0.390205,0.20025 0.550664,0.29445 0.439166,0.25783 0.856724,0.55284 1.270903,0.8482 0.304517,0.23676 0.464267,0.35442 0.758851,0.61118 0.551596,0.48076 1.052952,1.01442 1.57244,1.52862 0.335902,0.37273 0.450284,0.47829 0.741251,0.88515 0.443958,0.62078 0.791819,1.3122 1.029092,2.03682 0.395248,1.23464 0.696283,2.49937 1.161119,3.71132 0.208777,0.47409 0.250417,0.61565 0.522755,1.05206 0.417553,0.6691 1.001655,1.20368 1.587188,1.72284 0.482576,0.40186 0.539729,0.46193 1.052521,0.83753 0.800023,0.586 1.645758,1.11105 2.402686,1.75502 0.169148,0.15172 0.345501,0.29577 0.507444,0.45516 0.284277,0.27979 0.463429,0.50095 0.688171,0.81776 0.106995,0.15082 0.227203,0.33135 0.284456,0.51155 0.02228,0.0701 0.02429,0.14511 0.03642,0.21766 -0.0077,0.0657 -0.0093,0.13234 -0.02299,0.19705 -0.04469,0.21194 -0.146044,0.4301 -0.271764,0.60576 -0.04184,0.0585 -0.210404,0.14733 -0.140404,0.16372 0.09985,0.0234 0.185418,-0.0876 0.278128,-0.13147 -0.573286,0.33193 -1.205778,0.57971 -1.714035,1.01251 -0.137977,0.11721 -0.193828,0.16848 -0.341767,0.27788 -0.06798,0.0503 -0.163187,0.0739 -0.207431,0.14597 -0.03457,0.0563 0.234463,-0.1218 0.174961,-0.0931 -0.757269,0.36525 0.120629,-0.0293 -0.765344,0.35917 -0.611571,0.25489 -1.22808,0.49578 -1.842474,0.74364 -0.262115,0.10574 -1.054124,0.44019 -1.327081,0.53879 -0.212296,0.0767 -0.429622,0.13869 -0.644435,0.20803 -0.211548,0.0555 -0.421828,0.11599 -0.634645,0.16636 -0.21721,0.0514 -0.436462,0.0938 -0.655069,0.13888 -1.176652,0.24268 -2.359163,0.45652 -3.541916,0.66695 -1.409703,0.22844 -2.818493,0.45212 -4.237271,0.61826 -0.719587,0.0843 -1.348057,0.16887 -2.060117,0.15526 -0.09412,-0.002 -0.186266,-0.0275 -0.2794,-0.0412 -0.02029,-0.0205 -0.0618,-0.0325 -0.06085,-0.0613 0.0016,-0.0508 0.04296,-0.0922 0.06739,-0.13674 0.128137,-0.2336 0.300619,-0.44075 0.412564,-0.68387 0.241306,-0.48163 0.414947,-0.99306 0.551149,-1.51393 0.191759,-0.81687 0.33202,-1.65098 0.314502,-2.49301 -0.02874,-0.54296 -0.02807,-0.70433 -0.09871,-1.26265 -0.140153,-1.10779 -0.398767,-2.19785 -0.519853,-3.30857 -0.08286,-0.83207 -0.123196,-1.03401 -0.123992,-1.8805 -0.0016,-1.54716 0.257307,-3.07721 0.623321,-4.57669 0.381937,-1.42308 0.288666,-1.15297 0.742,-2.53866 0.129247,-0.39506 0.268899,-0.78666 0.39895,-1.18146 0.17518,-0.53178 0.350252,-1.01266 0.443206,-1.55912 0.02,-0.1175 0.01765,-0.23773 0.02646,-0.35659 0,0 -0.465391,0.24039 -0.465391,0.24039 z" />
    <text
       xml:space="preserve"
       id="text64"
       style="font-style:normal;font-weight:normal;font-size:10.5833px;line-height:1.25;font-family:sans-serif;white-space:pre;shape-inside:url(#rect66);fill:#000000;fill-opacity:1;stroke:none;"
       transform="translate(158.49083,97.553378)"><tspan
         x="-143.79102"
         y="175.07077"><tspan>tu du, tudu, </tspan></tspan><tspan
         x="-143.79102"
         y="188.2999"><tspan>tududududududududu</tspan></tspan></text>
  </g>
</svg>
